HIERARCHY
ROOT Hips
{
	OFFSET 0.000000 0.000000 0.000000 
	CHANNELS 6 Xposition Yposition Zposition Zrotation Yrotation Xrotation
	JOINT LeftUpLeg
	{
		OFFSET 1.363060 -1.794630 0.839290 
		CHANNELS 3 Zrotation Yrotation Xrotation
		JOINT LeftLeg
		{
			OFFSET 2.448110 -6.726130 0.000000 
			CHANNELS 3 Zrotation Yrotation Xrotation
			JOINT LeftFoot
			{
				OFFSET 2.562200 -7.039590 0.000000 
				CHANNELS 3 Zrotation Yrotation Xrotation
				JOINT LeftToeBase
				{
					OFFSET 0.157640 -0.433110 2.322550 
					CHANNELS 3 Zrotation Yrotation Xrotation
					End Site
					{
						OFFSET 0.000000 0.000000 0.000000 
					}
				}
			}
		}
	}
	JOINT RightUpLeg
	{
		OFFSET -1.305520 -1.794630 0.839290 
		CHANNELS 3 Zrotation Yrotation Xrotation
		JOINT RightLeg
		{
			OFFSET -2.542530 -6.985550 0.000000 
			CHANNELS 3 Zrotation Yrotation Xrotation
			JOINT RightFoot
			{
				OFFSET -2.568260 -7.056230 0.000000 
				CHANNELS 3 Zrotation Yrotation Xrotation
				JOINT RightToeBase
				{
					OFFSET -0.164730 -0.452590 2.363150 
					CHANNELS 3 Zrotation Yrotation Xrotation
					End Site
					{
						OFFSET 0.000000 0.000000 0.000000 
					}
				}
			}
		}
	}
	JOINT Spine
	{
		OFFSET 0.028270 2.035590 -0.193380 
		CHANNELS 3 Zrotation Yrotation Xrotation
		JOINT Spine1
		{
			OFFSET 0.056720 2.048850 -0.042750 
			CHANNELS 3 Zrotation Yrotation Xrotation
			JOINT Neck1
			{
				OFFSET -0.054170 1.746240 0.172020 
				CHANNELS 3 Zrotation Yrotation Xrotation
				JOINT Head
				{
					OFFSET 0.104070 1.761360 -0.123970 
					CHANNELS 3 Zrotation Yrotation Xrotation
					End Site
					{
						OFFSET 0.000000 0.000000 0.000000 
					}
				}
			}
			JOINT LeftArm
			{
				OFFSET 3.362410 1.200890 -0.311210 
				CHANNELS 3 Zrotation Yrotation Xrotation
				JOINT LeftForeArm
				{
					OFFSET 4.983000 -0.000000 -0.000000 
					CHANNELS 3 Zrotation Yrotation Xrotation
					JOINT LeftHand
					{
						OFFSET 3.483560 -0.000000 -0.000000 
						CHANNELS 3 Zrotation Yrotation Xrotation
						JOINT LeftHandIndex1
						{
							OFFSET 0.715260 -0.000000 -0.000000 
							CHANNELS 3 Zrotation Yrotation Xrotation
							End Site
							{
								OFFSET 0.000000 0.000000 0.000000 
							}
						}
					}
				}
			}
			JOINT RightArm
			{
				OFFSET -3.136600 1.374050 -0.404650 
				CHANNELS 3 Zrotation Yrotation Xrotation
				JOINT RightForeArm
				{
					OFFSET -5.241900 -0.000000 -0.000000 
					CHANNELS 3 Zrotation Yrotation Xrotation
					JOINT RightHand
					{
						OFFSET -3.444170 -0.000000 -0.000000 
						CHANNELS 3 Zrotation Yrotation Xrotation
						JOINT RightHandIndex1
						{
							OFFSET -0.622530 -0.000000 -0.000000 
							CHANNELS 3 Zrotation Yrotation Xrotation
							End Site
							{
								OFFSET 0.000000 0.000000 0.000000 
							}
						}
					}
				}
			}
		}
	}
}
MOTION
Frames: 12
Frame Time: 0.041667
17.859273 17.067716 -3.739764 -4.921243 -4.894209 -0.320626 0.118149 -1.771133 -15.229700 6.325758 15.609016 48.469192 3.257246 -2.614364 -13.113878 2.515000 -9.865100 -28.541100 5.245896 15.455538 -11.964328 -3.261874 -13.267523 39.487999 -2.146202 0.894456 -7.790048 -2.248200 9.365000 -26.943700 2.294639 -3.710091 -4.203972 2.797440 -0.925197 -7.289579 0.927486 16.624080 -2.361045 -11.545500 4.959700 -4.834100 -84.178546 18.528257 19.739587 117.543399 -58.677180 -91.888762 2.266777 -2.212923 -8.105520 -7.125000 0.000000 0.000000 77.517660 -10.507150 1.284848 -111.039465 57.596556 -87.621654 -1.340123 3.364870 -24.727918 7.125000 0.000000 0.000000 
17.898787 17.070153 -3.738280 -5.059057 -5.221758 -0.328220 0.093478 -1.636556 -15.187014 6.374266 15.633737 48.598320 3.307913 -2.700150 -13.311834 2.440600 -9.729200 -28.104000 5.222822 15.521809 -11.915427 -3.176925 -13.187810 39.197933 -2.110099 0.826759 -7.578791 -2.435800 9.720100 -28.075100 2.291222 -3.501439 -4.214239 2.932231 -0.785879 -7.480071 0.974054 16.401491 -2.372173 -11.437800 4.895400 -4.957600 -84.464462 19.547284 19.005120 117.717051 -58.695816 -91.959694 2.257694 -2.231614 -8.704621 -7.125000 0.000000 0.000000 76.997713 -10.345127 1.731813 -111.259779 57.530630 -87.821348 -1.365483 3.362636 -25.012845 7.125000 0.000000 0.000000 
17.942115 17.071530 -3.735526 -5.127950 -5.516866 -0.288806 -0.023289 -1.518715 -15.172269 6.416560 15.668738 48.743497 3.345476 -2.729479 -13.617381 2.383900 -9.623700 -27.766700 5.100199 15.644002 -11.845926 -3.102957 -13.113103 38.914407 -2.161814 0.973117 -7.313406 -2.398200 9.650500 -27.852100 2.245657 -3.154911 -4.174431 2.687580 -0.655515 -7.178592 0.919481 16.137258 -2.345830 -11.491500 4.753900 -4.740800 -84.252828 20.013364 18.748213 117.896305 -58.705418 -92.021346 2.247972 -2.266197 -9.472879 -7.125000 0.000000 0.000000 76.785769 -9.692158 1.812561 -111.326465 57.492837 -87.882653 -1.368296 3.361351 -25.309093 7.125000 0.000000 0.000000 
17.985549 17.074920 -3.728217 -5.331800 -5.695508 -0.240544 0.005724 -1.385038 -15.185434 6.482409 15.701204 48.887033 3.447675 -2.937997 -13.815125 2.307500 -9.479100 -27.305800 5.150415 15.850955 -11.717462 -3.031475 -13.045556 38.674548 -2.179574 1.041019 -7.127642 -2.318000 9.499200 -27.369700 2.204194 -2.943274 -4.161124 2.372445 -0.570141 -7.144806 0.979562 15.941796 -2.352179 -11.444600 4.660500 -4.783300 -84.108719 20.933659 18.322769 118.275404 -58.680070 -92.227656 2.245912 -2.266239 -10.429055 -7.125000 0.000000 0.000000 76.665302 -9.491409 2.174809 -111.473588 57.450728 -87.974341 -1.366368 3.348607 -25.657394 7.125000 0.000000 0.000000 
18.025804 17.073543 -3.722284 -5.473879 -6.054479 -0.132822 -0.028121 -1.080253 -15.298251 6.533433 15.731627 49.051329 3.405078 -2.798129 -13.990050 2.392100 -9.639100 -27.815700 5.113934 16.189732 -11.703201 -2.956672 -12.979004 38.423550 -2.123039 0.920269 -6.976870 -2.414400 9.680600 -27.948400 2.167605 -2.684672 -4.171239 2.212345 -0.438903 -7.239516 1.071776 15.732970 -2.286848 -11.341300 4.604000 -4.775700 -84.149141 22.063239 17.763349 118.760103 -58.617092 -92.507721 2.244545 -2.250777 -11.330895 -7.125000 0.000000 0.000000 76.478114 -9.334568 2.580945 -111.398371 57.435544 -87.900639 -1.356990 3.342982 -25.493944 7.125000 0.000000 0.000000 
18.065213 17.066763 -3.714763 -5.542857 -6.479534 -0.050105 -0.131094 -0.770552 -15.395458 6.591833 15.765431 49.228092 3.417612 -2.807442 -14.145922 2.378500 -9.613700 -27.734500 4.984081 16.507277 -11.709964 -2.883985 -12.911112 38.160388 -2.084644 0.840236 -6.794231 -2.482200 9.805400 -28.348800 2.127549 -2.386366 -4.172269 2.077219 -0.291302 -7.273821 1.087122 15.543982 -2.247221 -11.329800 4.532900 -4.730000 -84.109683 23.001644 17.256444 119.106666 -58.581162 -92.703457 2.237508 -2.246051 -12.390806 -7.125000 0.000000 0.000000 76.370427 -9.029567 2.856619 -111.144863 57.446313 -87.710797 -1.342738 3.345751 -25.164952 7.125000 0.000000 0.000000 
18.107269 17.067399 -3.703957 -5.817346 -6.523349 -0.078465 0.001526 -0.766493 -15.352829 6.671429 15.796995 49.353814 3.604011 -3.260842 -14.207400 2.194500 -9.259900 -26.611900 5.142853 16.534770 -11.532788 -2.810706 -12.838780 37.927436 -2.082291 0.850711 -6.679460 -2.426100 9.702300 -28.018000 2.111725 -2.274056 -4.166887 1.908926 -0.239079 -7.322686 1.104827 15.390580 -2.301129 -11.286800 4.456500 -4.838400 -84.015762 23.835949 16.774801 119.448904 -58.545354 -92.890574 2.216833 -2.261385 -13.832774 -7.125000 0.000000 0.000000 76.259669 -8.782609 3.046061 -111.121440 57.425130 -87.712579 -1.339467 3.344836 -25.375029 7.125000 0.000000 0.000000 
18.147419 17.071954 -3.697813 -6.016437 -6.531157 0.005637 0.064803 -0.744160 -15.426929 6.717585 15.818686 49.426124 3.707995 -3.522434 -14.212524 2.092000 -9.055200 -25.968200 5.200965 16.614284 -11.435016 -2.729361 -12.752676 37.641911 -2.105297 0.926716 -6.476225 -2.343400 9.547400 -27.523200 2.109980 -2.216201 -4.172804 1.887870 -0.197076 -7.357674 1.151423 15.197737 -2.336240 -11.203000 4.377900 -4.958000 -84.064313 24.628730 16.241944 119.851267 -58.487045 -93.113490 2.191654 -2.273014 -15.337893 -7.125000 0.000000 0.000000 75.930193 -8.634979 3.307083 -111.153507 57.410263 -87.708224 -1.330207 3.337130 -25.413370 7.125000 0.000000 0.000000 
18.185027 17.073225 -3.699296 -6.036956 -6.633101 -0.001230 -0.039650 -0.630394 -15.473295 6.737309 15.831454 49.484251 3.742278 -3.635175 -14.172901 1.987300 -8.839600 -25.294700 5.074822 16.813300 -11.302974 -2.639673 -12.656321 37.318404 -2.019996 0.744213 -6.191028 -2.431200 9.711700 -28.048200 2.087789 -2.096015 -4.186417 1.854305 -0.126476 -7.517618 1.171553 14.955797 -2.355318 -11.191800 4.274400 -5.006300 -84.075536 25.297152 15.637857 119.938645 -58.499664 -93.164017 2.189557 -2.263378 -16.859001 -7.125000 0.000000 0.000000 75.703973 -8.599303 3.621653 -111.073348 57.403138 -87.599142 -1.316671 3.327096 -25.149242 7.125000 0.000000 0.000000 
18.229308 17.081382 -3.695482 -6.136997 -6.820128 -0.134557 -0.092152 -0.439409 -15.382923 6.770898 15.841056 49.550865 3.818478 -3.830313 -14.212026 1.836200 -8.516300 -24.293500 5.054597 17.073318 -11.040909 -2.551137 -12.564684 37.020176 -1.930024 0.566885 -5.871345 -2.513100 9.861800 -28.530200 2.047310 -1.904076 -4.181829 1.611791 -0.049032 -7.639829 1.164487 14.766510 -2.378014 -11.195300 4.184500 -5.007500 -83.964649 25.934179 15.038683 120.096768 -58.480778 -93.289296 2.189293 -2.243497 -18.429681 -7.125000 0.000000 0.000000 75.637891 -8.504037 3.827505 -110.882626 57.404813 -87.463992 -1.307175 3.324698 -24.973480 7.125000 0.000000 0.000000 
18.277721 17.094412 -3.684889 -6.168955 -7.108305 -0.028983 -0.258330 -0.186027 -15.449370 6.811074 15.854801 49.618079 3.961660 -4.176076 -14.319896 1.681400 -8.168400 -23.226600 4.874993 17.425603 -10.979686 -2.479124 -12.481119 36.717274 -2.067984 0.940551 -5.431110 -2.327000 9.516300 -27.424300 2.006320 -1.707910 -4.166423 1.371237 0.029843 -7.521957 1.130110 14.675723 -2.389236 -11.231700 4.125300 -5.000900 -83.874394 26.518597 14.341745 120.443328 -58.420515 -93.549757 2.187304 -2.206448 -19.784559 -7.125000 0.000000 0.000000 75.604671 -8.297044 4.012126 -110.812269 57.410241 -87.397044 -1.298364 3.316341 -24.520810 7.125000 0.000000 0.000000 
18.319778 17.096107 -3.681710 -6.216621 -7.086115 0.160623 -0.351505 -0.155821 -15.646029 6.848498 15.878734 49.681865 4.085789 -4.506903 -14.306635 1.622600 -8.031200 -22.808900 4.732343 17.600664 -10.996587 -2.414208 -12.403638 36.452573 -2.119333 1.097295 -5.052310 -2.174800 9.221000 -26.489100 1.988812 -1.667186 -4.164262 1.265398 0.048321 -7.414930 1.093185 14.594365 -2.427683 -11.275700 4.064600 -5.041400 -83.844718 27.000470 13.625354 120.729922 -58.376603 -93.762019 2.183202 -2.173345 -21.355941 -7.125000 0.000000 0.000000 75.588366 -8.134790 4.165811 -110.782188 57.415982 -87.350251 -1.291526 3.308624 -24.175630 7.125000 0.000000 0.000000 
